<?xml version="1.0" encoding="utf-8"?>
<!-- Generator: Adobe Illustrator 20.1.0, SVG Export Plug-In . SVG Version: 6.00 Build 0)  -->
<svg version="1.1" id="Layer_1" xmlns="http://www.w3.org/2000/svg" xmlns:xlink="http://www.w3.org/1999/xlink" x="0px" y="0px"
	 viewBox="0 0 105 18" style="enable-background:new 0 0 105 18;" xml:space="preserve">
<style type="text/css">
	.st0{fill:#e5e5e5;}
</style>
<g>
	<path class="st0" d="M35.1,0.5c0.3,0,0.6,0,1,0c5.3,3.3,10.5,6.7,16.1,10.2c5.5-3.5,10.8-6.8,16.1-10.2c0.3,0,0.6,0,1,0
		c5.2,3.6,10.5,6.9,16.1,9.9c5-3,9.8-5.9,14.4-8.6c2,1.3,2.2,3.4,3.6,4.5c0,0.3,0,0.6,0,1c-6.1,3.1-11.9,6.8-17.5,10.7
		c-0.3,0-0.6,0-1,0c-5.3-3.3-10.6-6.7-15.9-10.1c-5.7,3.3-11.1,6.5-16.2,10.1c-0.3,0-0.6,0-1,0c-5.3-3.3-10.5-6.7-16-10.2
		c-5.5,3.5-10.8,6.8-16.1,10.2c-0.3,0-0.6,0-1,0C12.9,14.1,7.1,10.4,1,7.3c0-0.3,0-0.6,0-1c1.6-1.1,1.5-3.6,3.7-4.4
		c5.1,2.4,9.4,6.2,14.8,8.5C24.8,7.1,29.9,3.8,35.1,0.5z"/>
</g>
</svg>
